<svg xmlns="http://www.w3.org/2000/svg" xmlns:xlink="http://www.w3.org/1999/xlink" viewBox="0 0 247.89 145.12"><defs><style>.cls-1{fill:none;}.cls-2{isolation:isolate;}.cls-3{fill:#f9e8e8;}.cls-4{fill:#c6babc;}.cls-5{fill:#978e91;}.cls-6{fill:#b73639;}.cls-7{fill:#932729;}.cls-8{fill:#c03a3d;}.cls-9{fill:#c42e2e;}.cls-10{clip-path:url(#clip-path);}.cls-11{clip-path:url(#clip-path-2);}.cls-12{fill:#ae3335;}.cls-13{clip-path:url(#clip-path-3);}.cls-14{fill:#9b2b2d;}.cls-15{fill:#9f2d2f;}.cls-16{fill:#a32e30;}.cls-17{fill:#a63032;}.cls-18{fill:#aa3134;}.cls-19{clip-path:url(#clip-path-4);}.cls-20{clip-path:url(#clip-path-5);}.cls-21{fill:#b23437;}.cls-22{clip-path:url(#clip-path-6);}.cls-23{fill:#902628;}.cls-24{fill:#94282a;}.cls-25{fill:#97292b;}.cls-26{clip-path:url(#clip-path-7);}.cls-27{clip-path:url(#clip-path-8);}.cls-28{fill:#b63639;}.cls-29{clip-path:url(#clip-path-9);}.cls-30{clip-path:url(#clip-path-10);}.cls-31{clip-path:url(#clip-path-11);}.cls-32{clip-path:url(#clip-path-12);}.cls-33{clip-path:url(#clip-path-13);}.cls-34{clip-path:url(#clip-path-14);}.cls-35{clip-path:url(#clip-path-15);}.cls-36{clip-path:url(#clip-path-16);}.cls-37{clip-path:url(#clip-path-17);}.cls-38{clip-path:url(#clip-path-18);}.cls-39{clip-path:url(#clip-path-19);}.cls-40{clip-path:url(#clip-path-20);}.cls-41{clip-path:url(#clip-path-21);}.cls-42{clip-path:url(#clip-path-22);}.cls-43{clip-path:url(#clip-path-23);}.cls-44{clip-path:url(#clip-path-24);}.cls-45{clip-path:url(#clip-path-25);}.cls-46{clip-path:url(#clip-path-26);}.cls-47{clip-path:url(#clip-path-27);}.cls-48{clip-path:url(#clip-path-28);}.cls-49{clip-path:url(#clip-path-29);}.cls-50{clip-path:url(#clip-path-30);}.cls-51{clip-path:url(#clip-path-31);}.cls-52{clip-path:url(#clip-path-32);}.cls-53{clip-path:url(#clip-path-33);}</style><clipPath id="clip-path"><path class="cls-1" d="M154.3,51.33l0,16.3a7.23,7.23,0,0,0-.52-2.69c-.92-2.34-3-4.45-6.18-6.29a29.2,29.2,0,0,0-10.88-3.56,38.18,38.18,0,0,0-12.67.58,43.09,43.09,0,0,0-12.77,5c-4.11,2.39-7,4.89-8.54,7.42a9,9,0,0,0-1.46,4.66l.05-16.3a8.9,8.9,0,0,1,1.46-4.66c1.56-2.53,4.42-5,8.53-7.42a42.8,42.8,0,0,1,12.78-5,38.16,38.16,0,0,1,12.67-.57,29.21,29.21,0,0,1,10.87,3.56c3.18,1.84,5.26,3.95,6.19,6.29A7.22,7.22,0,0,1,154.3,51.33Z"/></clipPath><clipPath id="clip-path-2"><path class="cls-1" d="M131.56,61.49l-.23,0q0-8.15,0-16.3l.23,0Q131.58,53.34,131.56,61.49Z"/></clipPath><clipPath id="clip-path-3"><path class="cls-1" d="M132.62,61.39q0-8.14,0-16.3a15.58,15.58,0,0,1,3.65.16q0,8.14,0,16.3A16.11,16.11,0,0,0,132.62,61.39Z"/></clipPath><clipPath id="clip-path-4"><path class="cls-1" d="M131.33,61.51l-.22,0q0-8.16,0-16.31l.23,0Q131.35,53.37,131.33,61.51Z"/></clipPath><clipPath id="clip-path-5"><path class="cls-1" d="M130.42,61.66q0-8.16,0-16.31l.69-.11q0,8.16,0,16.31Z"/></clipPath><clipPath id="clip-path-6"><path class="cls-1" d="M139.46,62.53a12.11,12.11,0,0,0-3.19-1q0-8.14,0-16.3a11.68,11.68,0,0,1,3.18,1Q139.49,54.38,139.46,62.53Z"/></clipPath><clipPath id="clip-path-7"><path class="cls-1" d="M139.46,62.53q0-8.14,0-16.3l.37.18q0,8.16-.05,16.31Z"/></clipPath><clipPath id="clip-path-8"><path class="cls-1" d="M130.42,61.66a25,25,0,0,0-4,1.1q0-8.15,0-16.3a24,24,0,0,1,4-1.11Q130.45,53.51,130.42,61.66Z"/></clipPath><clipPath id="clip-path-9"><path class="cls-1" d="M126.43,62.76h0c0-5.43,0-10.86,0-16.3h0Q126.45,54.61,126.43,62.76Z"/></clipPath><clipPath id="clip-path-10"><path class="cls-1" d="M140.21,62.93a3.72,3.72,0,0,0-.39-.21q0-8.16.05-16.31l.38.21Q140.24,54.78,140.21,62.93Z"/></clipPath><clipPath id="clip-path-11"><path class="cls-1" d="M122,64.75q0-8.14,0-16.3a36.6,36.6,0,0,1,4.44-2q0,8.16,0,16.3A36.77,36.77,0,0,0,122,64.75Z"/></clipPath><clipPath id="clip-path-12"><path class="cls-1" d="M121.11,65.22l-1,.55q0-8.14,0-16.3l1-.55Q121.13,57.07,121.11,65.22Z"/></clipPath><clipPath id="clip-path-13"><path class="cls-1" d="M120.14,65.77l-.57.34q0-8.14,0-16.3l.57-.34Q120.17,57.61,120.14,65.77Z"/></clipPath><clipPath id="clip-path-14"><path class="cls-1" d="M119.57,66.11l-.57.35q0-8.16,0-16.31l.57-.34Q119.6,58,119.57,66.11Z"/></clipPath><clipPath id="clip-path-15"><path class="cls-1" d="M140.9,63.37q0-8.16,0-16.31a4.14,4.14,0,0,1,2.1,3.36L143,66.72A4.12,4.12,0,0,0,140.9,63.37Z"/></clipPath><clipPath id="clip-path-16"><path class="cls-1" d="M118.38,66.84q0-8.15.05-16.3l.61-.39q0,8.16,0,16.31Z"/></clipPath><clipPath id="clip-path-17"><path class="cls-1" d="M154.26,67.63c0,.15,0,.3,0,.44q0-8.14,0-16.3c0-.15,0-.3,0-.44C154.29,56.22,154.27,62.74,154.26,67.63Z"/></clipPath><clipPath id="clip-path-18"><path class="cls-1" d="M113.07,71.74q0-8.14,0-16.3c.8-1.49,2.58-3.13,5.32-4.9q0,8.16-.05,16.3C115.64,68.61,113.86,70.25,113.07,71.74Z"/></clipPath><clipPath id="clip-path-19"><path class="cls-1" d="M113.07,71.74c-.06.11-.11.21-.16.32q0-8.16,0-16.3a3.13,3.13,0,0,1,.15-.32c0,1.35,0,2.7,0,4.05q0,3.06,0,6.13V68c0,.77,0,1.53,0,2.3A6.83,6.83,0,0,1,113.07,71.74Z"/></clipPath><clipPath id="clip-path-20"><path class="cls-1" d="M154.24,68.07a9.22,9.22,0,0,1-1.44,4.21l0-16.3a9.16,9.16,0,0,0,1.45-4.21q0,4.08,0,8.15v6.25C154.25,66.74,154.26,67.5,154.24,68.07Z"/></clipPath><clipPath id="clip-path-21"><path class="cls-1" d="M154.55,51.33l-.05,16.31A8.93,8.93,0,0,1,153,72.33l0-16.3A8.91,8.91,0,0,0,154.55,51.33Z"/></clipPath><clipPath id="clip-path-22"><path class="cls-1" d="M112.91,72.06c0,.11-.1.23-.14.34q0-8.15,0-16.3c0-.11.09-.23.14-.34l0,8.15v3.18c0,1.35,0,2.69,0,4A4.92,4.92,0,0,1,112.91,72.06Z"/></clipPath><clipPath id="clip-path-23"><path class="cls-1" d="M112.77,72.4l-.09.32q0-8.16,0-16.31a2.12,2.12,0,0,1,.09-.31c0,2.72,0,5.43,0,8.15,0,1.41,0,2.82,0,4.23v2A12,12,0,0,1,112.77,72.4Z"/></clipPath><clipPath id="clip-path-24"><path class="cls-1" d="M142.8,50.42l-.05,16.31c0-1.41-.9-2.65-2.72-3.7a13.38,13.38,0,0,0-8.42-1.4,30.24,30.24,0,0,0-11.3,4.24c-4.18,2.43-6.63,4.64-7.29,6.56a3.62,3.62,0,0,0-.22,1.22l0-16.3a3.87,3.87,0,0,1,.21-1.22c.67-1.92,3.12-4.13,7.3-6.56a30.27,30.27,0,0,1,11.3-4.25,13.45,13.45,0,0,1,8.42,1.41Q142.79,48.31,142.8,50.42Z"/></clipPath><clipPath id="clip-path-25"><path class="cls-1" d="M143.05,50.42,143,66.72a3.69,3.69,0,0,1-.22,1.24c-.68,2-3.15,4.19-7.36,6.63A30.53,30.53,0,0,1,124,78.88a13.87,13.87,0,0,1-8.7-1.47c-1.83-1.06-2.74-2.32-2.74-3.75l0-16.3c0,1.43.91,2.69,2.74,3.74a13.87,13.87,0,0,0,8.7,1.48,30.66,30.66,0,0,0,11.42-4.29c4.21-2.45,6.69-4.68,7.37-6.63A4,4,0,0,0,143.05,50.42Z"/></clipPath><clipPath id="clip-path-26"><path class="cls-1" d="M112.61,73q0-8.16,0-16.31c0-.1,0-.2.07-.3q0,8.16,0,16.31C112.65,72.82,112.63,72.92,112.61,73Z"/></clipPath><clipPath id="clip-path-27"><path class="cls-1" d="M112.61,73v0q0-8.16,0-16.31v0q0,7.29,0,14.58v1.09C112.61,72.59,112.63,72.8,112.61,73Z"/></clipPath><clipPath id="clip-path-28"><path class="cls-1" d="M112.61,73.06a3.05,3.05,0,0,0-.06.6l0-16.3a4.3,4.3,0,0,1,.05-.61c0,2.72,0,5.44,0,8.15V66l0,5.18C112.61,71.72,112.66,72.49,112.61,73.06Z"/></clipPath><clipPath id="clip-path-29"><path class="cls-1" d="M101.76,75.39a7.18,7.18,0,0,1-.52-2.68l.05-16.3a7.37,7.37,0,0,0,.51,2.68Q101.79,67.23,101.76,75.39Z"/></clipPath><clipPath id="clip-path-30"><path class="cls-1" d="M152.8,72.28c-1.56,2.53-4.43,5-8.54,7.42q0-8.16.05-16.3c4.11-2.39,7-4.89,8.53-7.42C152.83,60.87,154.13,67.58,152.8,72.28Z"/></clipPath><clipPath id="clip-path-31"><path class="cls-1" d="M144.26,79.7a42.8,42.8,0,0,1-12.78,5q0-8.16.05-16.31a43,43,0,0,0,12.78-5Q144.28,71.55,144.26,79.7Z"/></clipPath><clipPath id="clip-path-32"><path class="cls-1" d="M131.48,84.67a38.1,38.1,0,0,1-12.66.57q0-8.16,0-16.3a38.16,38.16,0,0,0,12.67-.58Q131.5,76.52,131.48,84.67Z"/></clipPath><clipPath id="clip-path-33"><path class="cls-1" d="M101,72.71,101,56.4a7.38,7.38,0,0,0,.52,2.72c.94,2.37,3,4.5,6.25,6.36a29.48,29.48,0,0,0,11,3.6,38.42,38.42,0,0,0,12.8-.58,43.18,43.18,0,0,0,12.87-5c4.14-2.4,7-4.92,8.59-7.47l0,16.3c-1.57,2.55-4.46,5.07-8.59,7.47a42.85,42.85,0,0,1-12.87,5,38.42,38.42,0,0,1-12.8.58,29.36,29.36,0,0,1-11-3.6c-3.21-1.85-5.31-4-6.25-6.36A7.33,7.33,0,0,1,101,72.71Z"/></clipPath></defs><title>Asset 2</title><g id="Layer_2" data-name="Layer 2"><g id="Layer_1-2" data-name="Layer 1"><g class="cls-2"><polygon class="cls-3" points="247.89 87.13 150.91 143.49 0.01 56.36 96.98 0 247.89 87.13"/><polygon class="cls-4" points="247.89 87.13 247.89 88.76 150.91 145.12 150.91 143.49 247.89 87.13"/><polygon class="cls-5" points="150.91 143.49 150.91 145.12 0 57.99 0.01 56.36 150.91 143.49"/></g><g class="cls-2"><polygon points="110.09 21.45 110.04 37.76 67.47 41.38 67.52 25.08 110.09 21.45"/><polygon points="119.27 26.76 119.23 43.06 110.04 37.76 110.09 21.45 119.27 26.76"/><polygon points="67.52 25.08 67.47 41.38 61.59 44.8 61.64 28.5 67.52 25.08"/><polygon class="cls-6" points="119.27 26.76 119.23 43.06 79.16 46.73 79.2 30.43 119.27 26.76"/><polygon points="119.8 26.85 119.75 43.16 79.67 46.83 79.72 30.53 119.8 26.85"/><polygon points="89.86 36.59 89.82 52.89 79.16 46.73 79.2 30.43 89.86 36.59"/><polygon points="97.06 32.4 97.02 48.71 89.82 52.89 89.86 36.59 97.06 32.4"/><polygon points="105.35 37.19 105.31 53.49 97.02 48.71 97.06 32.4 105.35 37.19"/><polygon class="cls-7" points="82.5 40.55 82.46 56.85 61.59 44.8 61.64 28.5 82.5 40.55"/><polygon points="82.15 40.54 82.11 56.84 61.25 44.8 61.3 28.5 82.15 40.54"/><polygon class="cls-8" points="105.35 37.19 105.31 53.49 98.11 57.67 98.15 41.37 105.35 37.19"/><polygon points="105.71 37.19 105.66 53.49 98.46 57.68 98.5 41.38 105.71 37.19"/><polygon points="104.46 45.01 104.41 61.32 98.11 57.67 98.15 41.37 104.46 45.01"/><polygon points="82.5 40.55 82.46 56.85 74.38 61.54 74.43 45.24 82.5 40.55"/><polygon class="cls-7" points="97.38 49.13 97.33 65.43 91.02 61.79 91.07 45.49 97.38 49.13"/><polygon class="cls-8" points="104.46 45.01 104.41 61.32 97.33 65.43 97.38 49.13 104.46 45.01"/><polygon points="97.38 49.33 97.34 65.64 91.03 61.99 91.07 45.69 97.38 49.33"/><polygon points="104.81 45.02 104.76 61.32 97.34 65.64 97.38 49.33 104.81 45.02"/><polygon class="cls-9" points="119.27 26.76 79.2 30.43 89.86 36.59 97.06 32.4 105.35 37.19 98.15 41.37 104.46 45.01 97.38 49.13 91.07 45.49 82.99 50.18 74.43 45.24 82.5 40.55 61.64 28.5 67.52 25.08 110.09 21.45 119.27 26.76"/><polygon class="cls-8" points="91.07 45.49 91.02 61.79 82.94 66.48 82.99 50.18 91.07 45.49"/><polygon class="cls-7" points="82.99 50.18 82.94 66.48 74.38 61.54 74.43 45.24 82.99 50.18"/><polygon points="82.99 50.39 82.95 66.69 74.03 61.54 74.07 45.24 82.99 50.39"/><polygon points="91.07 45.69 91.03 61.99 82.95 66.69 82.99 50.39 91.07 45.69"/><path d="M98.5,41.37,104.81,45l-7.43,4.31-6.31-3.64L83,50.39l-8.92-5.15,8.08-4.7L61.3,28.5,67.4,25l42.77-3.65,9.63,5.55L79.72,30.53l10.14,5.85,7.2-4.18,8.65,5Zm-1.13,7.76L104.46,45l-6.31-3.64,7.2-4.18L97.06,32.4l-7.2,4.19L79.2,30.43l40.07-3.67-9.18-5.31L67.52,25.08,61.64,28.5l20.86,12-8.07,4.69L83,50.18l8.08-4.69,6.3,3.64"/></g><g class="cls-2"><g class="cls-2"><g class="cls-10"><g class="cls-2"><path d="M154.3,51.33l0,16.3a7.23,7.23,0,0,0-.52-2.69c-.92-2.34-3-4.45-6.18-6.29A26.54,26.54,0,0,0,144,56.94l.05-16.3a26.41,26.41,0,0,1,3.55,1.71c3.18,1.84,5.26,3.95,6.19,6.29a7.22,7.22,0,0,1,.51,2.69"/><path d="M144.05,40.64,144,56.94c-.86-.33-1.75-.63-2.66-.89l0-16.31c.91.26,1.8.56,2.66.9"/><path d="M141.39,39.74l0,16.31c-.72-.21-1.46-.39-2.21-.55l0-16.3c.76.16,1.49.34,2.22.54"/><path d="M139.17,39.2l0,16.3c-.68-.14-1.37-.26-2.07-.35l.05-16.31c.7.1,1.39.22,2.06.36"/><path d="M137.11,38.84l-.05,16.31-.38-.06c-.53-.07-1.06-.12-1.6-.17l0-16.3c.54,0,1.08.1,1.61.17l.38.05"/><path d="M135.12,38.62l0,16.3c-.67-.05-1.34-.09-2-.1l0-16.31c.68,0,1.35.06,2,.11"/><path d="M133.11,38.51l0,16.31c-.72,0-1.45,0-2.17,0l0-16.31c.73,0,1.45,0,2.17,0"/><path d="M130.94,38.52l0,16.31c-.84,0-1.67.08-2.52.16l.05-16.3c.84-.08,1.68-.14,2.51-.17"/><path d="M128.43,38.69,128.38,55c-1.08.11-2.16.26-3.26.46l0-16.3c1.09-.2,2.18-.35,3.26-.46"/><path d="M125.17,39.15l0,16.3-1.11.22a37.19,37.19,0,0,0-4.08,1.08l0-16.31c1.36-.43,2.72-.79,4.09-1.08l1.11-.21"/><path d="M120,40.44l0,16.31a44.06,44.06,0,0,0-8.69,3.88l-.71.42,0-16.3.7-.42A44.11,44.11,0,0,1,120,40.44"/><path d="M110.58,44.75l0,16.3a31.36,31.36,0,0,0-5,3.72l0-16.31a32.08,32.08,0,0,1,5.06-3.71"/><path d="M105.52,48.46l0,16.31a17.27,17.27,0,0,0-1.92,2.06l0-16.31a20.08,20.08,0,0,1,1.92-2.06"/><path d="M103.6,50.52l0,16.31a11.8,11.8,0,0,0-.86,1.22c-.07.13-.15.25-.22.37l0-16.3c.07-.12.14-.25.22-.37a12.94,12.94,0,0,1,.85-1.23"/><path d="M102.53,52.12l0,16.3a10.68,10.68,0,0,0-.7,1.51l0-16.31a10.67,10.67,0,0,1,.71-1.5"/><path d="M101.82,53.62l0,16.31a8.35,8.35,0,0,0-.39,1.33l0-16.3a8.72,8.72,0,0,1,.38-1.34"/><path d="M101.44,55l0,16.3a7.71,7.71,0,0,0-.14,1.26l0-16.3a6.77,6.77,0,0,1,.15-1.26"/><path d="M101.29,56.22l0,16.3a1.21,1.21,0,0,0,0,.19l.05-16.3v-.19"/></g></g></g><g class="cls-2"><g class="cls-11"><g class="cls-2"><path class="cls-12" d="M132,45.14l-.05,16.31-.35,0c-.37,0-.74.1-1.12.16l0-16.3c.38-.07.76-.12,1.13-.17l.35,0"/></g></g></g><g class="cls-2"><g class="cls-13"><g class="cls-2"><path class="cls-14" d="M136.83,45.34l0,16.31L136,61.5l0-16.3.84.14"/><path class="cls-15" d="M136,45.2l0,16.3c-.28,0-.56-.07-.85-.09l.05-16.31.84.1"/><path class="cls-16" d="M135.15,45.1l-.05,16.31c-.3,0-.6,0-.9,0l0-16.31.91.05"/><path class="cls-17" d="M134.24,45.05l0,16.31h-1l.05-16.3h1"/><path class="cls-18" d="M133.22,45.06l-.05,16.3-1.26.09L132,45.14c.43,0,.85-.07,1.26-.08"/></g></g></g><g class="cls-2"><g class="cls-19"><g class="cls-2"><path class="cls-12" d="M132,45.14l-.05,16.31-.35,0c-.37,0-.74.1-1.12.16l0-16.3c.38-.07.76-.12,1.13-.17l.35,0"/></g></g></g><g class="cls-2"><g class="cls-20"><g class="cls-2"><path class="cls-12" d="M132,45.14l-.05,16.31-.35,0c-.37,0-.74.1-1.12.16l0-16.3c.38-.07.76-.12,1.13-.17l.35,0"/><path class="cls-21" d="M130.48,45.35l0,16.3a25.7,25.7,0,0,0-3,.75l0-16.3a22.55,22.55,0,0,1,3-.75"/></g></g></g><g class="cls-2"><g class="cls-22"><g class="cls-2"><path class="cls-23" d="M143.05,50.42,143,66.72c0-1.44-.93-2.72-2.79-3.79a10.88,10.88,0,0,0-1.46-.7l.05-16.31a11.42,11.42,0,0,1,1.45.7q2.81,1.62,2.8,3.8"/><path class="cls-24" d="M138.8,45.92l-.05,16.31a9,9,0,0,0-1.07-.36l0-16.31c.37.11.72.23,1.07.36"/><path class="cls-25" d="M137.73,45.56l0,16.31a8.89,8.89,0,0,0-.89-.22l0-16.31.9.22"/><path class="cls-14" d="M136.83,45.34l0,16.31L136,61.5l0-16.3.84.14"/></g></g></g><g class="cls-2"><g class="cls-26"><g class="cls-2"><path class="cls-23" d="M143.05,50.42,143,66.72c0-1.44-.93-2.72-2.79-3.79a10.88,10.88,0,0,0-1.46-.7l.05-16.31a11.42,11.42,0,0,1,1.45.7q2.81,1.62,2.8,3.8"/></g></g></g><g class="cls-2"><g class="cls-27"><g class="cls-2"><path class="cls-21" d="M130.48,45.35l0,16.3a25.7,25.7,0,0,0-3,.75l0-16.3a22.55,22.55,0,0,1,3-.75"/><path class="cls-28" d="M127.52,46.1l0,16.3a37.84,37.84,0,0,0-7.34,3.37l-.76.45.05-16.3.75-.45a38.11,38.11,0,0,1,7.34-3.37"/></g></g></g><g class="cls-2"><g class="cls-29"><g class="cls-2"><path class="cls-28" d="M127.52,46.1l0,16.3a37.84,37.84,0,0,0-7.34,3.37l-.76.45.05-16.3.75-.45a38.11,38.11,0,0,1,7.34-3.37"/></g></g></g><g class="cls-2"><g class="cls-30"><g class="cls-2"><path class="cls-23" d="M143.05,50.42,143,66.72c0-1.44-.93-2.72-2.79-3.79a10.88,10.88,0,0,0-1.46-.7l.05-16.31a11.42,11.42,0,0,1,1.45.7q2.81,1.62,2.8,3.8"/></g></g></g><g class="cls-2"><g class="cls-31"><g class="cls-2"><path class="cls-28" d="M127.52,46.1l0,16.3a37.84,37.84,0,0,0-7.34,3.37l-.76.45.05-16.3.75-.45a38.11,38.11,0,0,1,7.34-3.37"/></g></g></g><g class="cls-2"><g class="cls-32"><g class="cls-2"><path class="cls-28" d="M127.52,46.1l0,16.3a37.84,37.84,0,0,0-7.34,3.37l-.76.45.05-16.3.75-.45a38.11,38.11,0,0,1,7.34-3.37"/></g></g></g><g class="cls-2"><g class="cls-33"><g class="cls-2"><path class="cls-28" d="M127.52,46.1l0,16.3a37.84,37.84,0,0,0-7.34,3.37l-.76.45.05-16.3.75-.45a38.11,38.11,0,0,1,7.34-3.37"/></g></g></g><g class="cls-2"><g class="cls-34"><g class="cls-2"><path class="cls-28" d="M127.52,46.1l0,16.3a37.84,37.84,0,0,0-7.34,3.37l-.76.45.05-16.3.75-.45a38.11,38.11,0,0,1,7.34-3.37"/><path class="cls-21" d="M119.43,49.92l-.05,16.3a27.82,27.82,0,0,0-4.41,3.2l0-16.3a26.77,26.77,0,0,1,4.41-3.2"/></g></g></g><g class="cls-2"><g class="cls-35"><g class="cls-2"><path class="cls-23" d="M143.05,50.42,143,66.72c0-1.44-.93-2.72-2.79-3.79a10.88,10.88,0,0,0-1.46-.7l.05-16.31a11.42,11.42,0,0,1,1.45.7q2.81,1.62,2.8,3.8"/></g></g></g><g class="cls-2"><g class="cls-36"><g class="cls-2"><path class="cls-21" d="M119.43,49.92l-.05,16.3a27.82,27.82,0,0,0-4.41,3.2l0-16.3a26.77,26.77,0,0,1,4.41-3.2"/></g></g></g><g class="cls-2"><g class="cls-37"><g class="cls-2"><path class="cls-14" d="M154.3,51.33l0,16.3a1.21,1.21,0,0,1,0,.19l.05-16.3v-.19"/><path class="cls-15" d="M154.3,51.52l-.05,16.3a8,8,0,0,1-.14,1.26l0-16.31a7.72,7.72,0,0,0,.14-1.25"/></g></g></g><g class="cls-2"><g class="cls-38"><g class="cls-2"><path class="cls-21" d="M119.43,49.92l-.05,16.3a27.82,27.82,0,0,0-4.41,3.2l0-16.3a26.77,26.77,0,0,1,4.41-3.2"/><path class="cls-12" d="M115,53.12l0,16.3a11.61,11.61,0,0,0-1.25,1.33l0-16.3A10.12,10.12,0,0,1,115,53.12"/><path class="cls-18" d="M113.77,54.45l0,16.3a7.88,7.88,0,0,0-.59.87l.05-16.3a6.36,6.36,0,0,1,.59-.87"/><path class="cls-17" d="M113.18,55.32l-.05,16.3a5.9,5.9,0,0,0-.32.68l0-16.31a4.51,4.51,0,0,1,.32-.67"/></g></g></g><g class="cls-2"><g class="cls-39"><g class="cls-2"><path class="cls-17" d="M113.18,55.32l-.05,16.3a5.9,5.9,0,0,0-.32.68l0-16.31a4.51,4.51,0,0,1,.32-.67"/></g></g></g><g class="cls-2"><g class="cls-40"><g class="cls-2"><path class="cls-15" d="M154.3,51.52l-.05,16.3a8,8,0,0,1-.14,1.26l0-16.31a7.72,7.72,0,0,0,.14-1.25"/><path class="cls-16" d="M154.16,52.77l0,16.31a9.36,9.36,0,0,1-.38,1.32l0-16.3a8.35,8.35,0,0,0,.39-1.33"/><path class="cls-17" d="M153.77,54.1l0,16.3a11.1,11.1,0,0,1-.7,1.49l0-16.3a9.49,9.49,0,0,0,.7-1.49"/><path class="cls-18" d="M153.07,55.59l0,16.3-.23.39,0-16.3c.08-.13.16-.26.23-.39"/></g></g></g><g class="cls-2"><g class="cls-41"><g class="cls-2"><path d="M154.55,51.33l-.05,16.31v.19l.05-16.31v-.19"/><path d="M154.55,51.52l-.05,16.31a7,7,0,0,1-.15,1.27l.05-16.31a6.88,6.88,0,0,0,.15-1.27"/><path d="M154.4,52.79l-.05,16.31a7.62,7.62,0,0,1-.38,1.33l.05-16.3a10,10,0,0,0,.38-1.34"/><path d="M154,54.13,154,70.43a10.48,10.48,0,0,1-.7,1.49l0-16.3a11.71,11.71,0,0,0,.7-1.49"/><path d="M153.32,55.62l0,16.3-.24.41,0-16.3.25-.41"/></g></g></g><g class="cls-2"><g class="cls-42"><g class="cls-2"><path class="cls-17" d="M113.18,55.32l-.05,16.3a5.9,5.9,0,0,0-.32.68l0-16.31a4.51,4.51,0,0,1,.32-.67"/><path class="cls-16" d="M112.86,56l0,16.31a.42.42,0,0,1,0,.1c-.06.19-.11.37-.15.55l0-16.3c0-.18.09-.36.15-.55,0,0,0-.07,0-.11"/></g></g></g><g class="cls-2"><g class="cls-43"><g class="cls-2"><path class="cls-16" d="M112.86,56l0,16.31a.42.42,0,0,1,0,.1c-.06.19-.11.37-.15.55l0-16.3c0-.18.09-.36.15-.55,0,0,0-.07,0-.11"/></g></g></g><g class="cls-2"><g class="cls-44"><g class="cls-2"><path d="M142.8,50.42l-.05,16.31c0-1.41-.9-2.65-2.72-3.7a9.77,9.77,0,0,0-1.42-.68l0-16.31a12.4,12.4,0,0,1,1.42.69q2.71,1.58,2.72,3.69"/><path d="M138.66,46l0,16.31a9.07,9.07,0,0,0-1-.35l.05-16.31c.35.1.7.22,1,.35"/><path d="M137.62,45.69,137.57,62a8.52,8.52,0,0,0-.87-.22l0-16.3c.3.06.59.13.88.21"/><path d="M136.74,45.48l0,16.3-.82-.14.05-16.3c.27,0,.55.08.81.14"/><path d="M135.93,45.34l-.05,16.3c-.27,0-.54-.07-.82-.09l0-16.3c.28,0,.56,0,.83.09"/><path d="M135.1,45.25l0,16.3c-.29,0-.58,0-.88,0l0-16.3c.3,0,.6,0,.88,0"/><path d="M134.22,45.2l0,16.3c-.33,0-.66,0-1,0l0-16.31c.34,0,.68,0,1,0"/><path d="M133.22,45.2l0,16.31c-.4,0-.81,0-1.23.08l0-16.3c.42,0,.83-.07,1.23-.09"/><path d="M132,45.29l0,16.3-.34,0c-.36,0-.73.09-1.11.16l.05-16.3c.38-.07.75-.12,1.11-.17l.33,0"/><path d="M130.55,45.49l-.05,16.3a23.46,23.46,0,0,0-2.91.74l0-16.3a21.94,21.94,0,0,1,2.92-.74"/><path d="M127.63,46.23l0,16.3a37.47,37.47,0,0,0-7.28,3.34l-.75.45,0-16.31.75-.44a36.82,36.82,0,0,1,7.27-3.34"/><path d="M119.61,50l0,16.31a26.84,26.84,0,0,0-4.38,3.17l0-16.3A27.44,27.44,0,0,1,119.61,50"/><path d="M115.23,53.19l0,16.3A13.19,13.19,0,0,0,114,70.8l0-16.3a10.5,10.5,0,0,1,1.23-1.31"/><path d="M114,54.5l0,16.3a6.92,6.92,0,0,0-.58.87l0-16.31a7,7,0,0,1,.59-.86"/><path d="M113.41,55.36l0,16.31a5,5,0,0,0-.32.66l0-16.3a5.66,5.66,0,0,1,.31-.67"/><path d="M113.1,56l0,16.3,0,.1a5.44,5.44,0,0,0-.15.54l0-16.31a3.79,3.79,0,0,1,.14-.53l0-.1"/><path d="M112.92,56.66l0,16.31a4.09,4.09,0,0,0-.07.6l0-16.31a3.26,3.26,0,0,1,.07-.6"/><path d="M112.85,57.26l0,16.31v.08l0-16.3v-.09"/></g></g></g><g class="cls-2"><g class="cls-45"><g class="cls-2"><path d="M143.05,50.42,143,66.72v.09l.05-16.3v-.09"/><path d="M143.05,50.51,143,66.81a4.39,4.39,0,0,1-.07.61l0-16.3a3.3,3.3,0,0,0,.08-.61"/><path d="M143,51.12l0,16.3a5.44,5.44,0,0,1-.15.54.3.3,0,0,1,0,.1l0-16.3,0-.1a3.91,3.91,0,0,0,.14-.54"/><path d="M142.79,51.76l0,16.3a5.78,5.78,0,0,1-.31.68l0-16.3a4.6,4.6,0,0,0,.32-.68"/><path d="M142.47,52.44l0,16.3a8.61,8.61,0,0,1-.6.88l0-16.31a7,7,0,0,0,.59-.87"/><path d="M141.88,53.31l0,16.31A12.5,12.5,0,0,1,140.58,71l0-16.3a11.65,11.65,0,0,0,1.25-1.34"/><path d="M140.63,54.65l0,16.3a28,28,0,0,1-4.41,3.2l.05-16.31a27.84,27.84,0,0,0,4.41-3.19"/><path d="M136.22,57.84l-.05,16.31-.75.44A37.31,37.31,0,0,1,128.07,78l.05-16.3a37.25,37.25,0,0,0,7.34-3.37l.76-.45"/><path d="M128.12,61.66,128.07,78a22,22,0,0,1-2.95.75l0-16.3a22.42,22.42,0,0,0,3-.75"/><path d="M125.17,62.41l0,16.3c-.38.07-.76.13-1.13.17l-.35,0,0-16.3.35,0c.37,0,.75-.1,1.13-.17"/><path d="M123.69,62.62l0,16.3c-.42,0-.83.07-1.24.08l0-16.3c.4,0,.82,0,1.24-.08"/><path d="M122.45,62.7l0,16.3c-.34,0-.68,0-1,0l.05-16.31h1"/><path d="M121.43,62.7,121.38,79l-.9-.05,0-16.3c.29,0,.59,0,.9,0"/><path d="M120.53,62.66l0,16.3c-.29,0-.57-.06-.85-.1l.05-16.3.85.1"/><path d="M119.68,62.56l-.05,16.3-.84-.14,0-16.31c.28.06.56.11.85.15"/><path d="M118.83,62.41l0,16.31c-.31-.07-.62-.14-.91-.23l0-16.3a9.28,9.28,0,0,0,.91.22"/><path d="M117.92,62.19l0,16.3a9.28,9.28,0,0,1-1.09-.36l0-16.31a10.76,10.76,0,0,0,1.09.37"/><path d="M116.83,61.82l0,16.31a12.94,12.94,0,0,1-1.5-.72c-1.83-1.06-2.74-2.32-2.74-3.75l0-16.3c0,1.43.91,2.69,2.74,3.74a9.75,9.75,0,0,0,1.49.72"/></g></g></g><g class="cls-2"><g class="cls-46"><g class="cls-2"><path class="cls-16" d="M112.86,56l0,16.31a.42.42,0,0,1,0,.1c-.06.19-.11.37-.15.55l0-16.3c0-.18.09-.36.15-.55,0,0,0-.07,0-.11"/><path class="cls-15" d="M112.67,56.65l0,16.3a4.53,4.53,0,0,0-.07.62l0-16.3a4.36,4.36,0,0,1,.07-.62"/></g></g></g><g class="cls-2"><g class="cls-47"><g class="cls-2"><path class="cls-15" d="M112.67,56.65l0,16.3a4.53,4.53,0,0,0-.07.62l0-16.3a4.36,4.36,0,0,1,.07-.62"/></g></g></g><g class="cls-2"><g class="cls-48"><g class="cls-2"><path class="cls-15" d="M112.67,56.65l0,16.3a4.53,4.53,0,0,0-.07.62l0-16.3a4.36,4.36,0,0,1,.07-.62"/><path class="cls-14" d="M112.6,57.27l0,16.3v.09l0-16.3v-.09"/></g></g></g><g class="cls-2"><g class="cls-49"><g class="cls-2"><path class="cls-23" d="M111.55,67.09l0,16.3a27.14,27.14,0,0,1-3.56-1.71c-3.18-1.84-5.26-4-6.18-6.29a7.18,7.18,0,0,1-.52-2.68l.05-16.3a7.37,7.37,0,0,0,.51,2.68c.93,2.34,3,4.45,6.19,6.29a26,26,0,0,0,3.56,1.71"/></g></g></g><path d="M140.25,46.62c2.38,1.38,3.25,3.07,2.58,5s-3.16,4.18-7.37,6.63A30.66,30.66,0,0,1,124,62.58a13.87,13.87,0,0,1-8.7-1.48c-2.35-1.35-3.19-3-2.52-5s3.15-4.18,7.36-6.63a30.7,30.7,0,0,1,11.43-4.29A13.84,13.84,0,0,1,140.25,46.62ZM124,62.44a30.27,30.27,0,0,0,11.3-4.25c4.17-2.42,6.63-4.64,7.29-6.56s-.19-3.57-2.5-4.9a13.45,13.45,0,0,0-8.42-1.41,30.27,30.27,0,0,0-11.3,4.25c-4.18,2.43-6.63,4.64-7.3,6.56s.18,3.55,2.45,4.87A13.55,13.55,0,0,0,124,62.44"/><g class="cls-2"><g class="cls-50"><g class="cls-2"><path class="cls-18" d="M152.84,56l0,16.3a13.09,13.09,0,0,1-.86,1.23L152,57.2a11.68,11.68,0,0,0,.85-1.22"/><path class="cls-12" d="M152,57.2l-.05,16.31A18.07,18.07,0,0,1,150,75.57l0-16.31A19.09,19.09,0,0,0,152,57.2"/><path class="cls-21" d="M150.07,59.26l0,16.31A32.43,32.43,0,0,1,145,79.28L145,63a31.48,31.48,0,0,0,5.06-3.72"/><path class="cls-28" d="M145,63l0,16.3-.71.42a44.11,44.11,0,0,1-8.69,3.89l.05-16.31a44.06,44.06,0,0,0,8.69-3.88L145,63"/></g></g></g><g class="cls-2"><g class="cls-51"><g class="cls-2"><path class="cls-28" d="M145,63l0,16.3-.71.42a44.11,44.11,0,0,1-8.69,3.89l.05-16.31a44.06,44.06,0,0,0,8.69-3.88L145,63"/><path class="cls-21" d="M135.62,67.28l-.05,16.31c-1.35.43-2.72.79-4.09,1.08l-1.13.22,0-16.3,1.14-.23a38,38,0,0,0,4.09-1.08"/></g></g></g><path class="cls-9" d="M152.84,56c-1.55,2.53-4.42,5-8.53,7.42a43,43,0,0,1-12.78,5,38.16,38.16,0,0,1-12.67.58A29.21,29.21,0,0,1,108,65.38c-3.18-1.84-5.26-3.95-6.19-6.29a8,8,0,0,1,1-7.34c1.56-2.53,4.42-5,8.53-7.42a42.8,42.8,0,0,1,12.78-5,38.16,38.16,0,0,1,12.67-.57,29.21,29.21,0,0,1,10.87,3.56c3.18,1.84,5.26,3.95,6.19,6.29A8,8,0,0,1,152.84,56ZM124,62.58a30.66,30.66,0,0,0,11.42-4.29c4.21-2.45,6.69-4.68,7.37-6.63s-.2-3.66-2.58-5a13.84,13.84,0,0,0-8.64-1.44,30.7,30.7,0,0,0-11.43,4.29c-4.21,2.45-6.69,4.68-7.36,6.63s.17,3.65,2.52,5a13.87,13.87,0,0,0,8.7,1.48"/><g class="cls-2"><g class="cls-52"><g class="cls-2"><path class="cls-21" d="M135.62,67.28l-.05,16.31c-1.35.43-2.72.79-4.09,1.08l-1.13.22,0-16.3,1.14-.23a38,38,0,0,0,4.09-1.08"/><path class="cls-12" d="M130.39,68.59l0,16.3c-1.09.19-2.16.34-3.23.45l0-16.3c1.07-.11,2.15-.26,3.23-.45"/><path class="cls-18" d="M127.16,69l0,16.3c-.84.08-1.68.14-2.51.17l0-16.31c.83,0,1.66-.08,2.5-.16"/><path class="cls-17" d="M124.66,69.2l0,16.31c-.72,0-1.45,0-2.17,0l0-16.3c.72,0,1.44,0,2.17,0"/><path class="cls-16" d="M122.49,69.22l0,16.3c-.68,0-1.35,0-2-.11l0-16.3c.67,0,1.34.09,2,.11"/><path class="cls-15" d="M120.47,69.11l0,16.3c-.54,0-1.08-.1-1.61-.17l-.39,0,0-16.31.38.06c.53.07,1.07.12,1.61.17"/></g></g></g><g class="cls-2"><g class="cls-53"><g class="cls-2"><path d="M153.07,56l0,16.3c-.26.42-.55.83-.87,1.25l0-16.31a10.75,10.75,0,0,0,.87-1.24"/><path d="M152.2,57.27l0,16.31a19.22,19.22,0,0,1-1.93,2.07l0-16.3a17.5,17.5,0,0,0,1.93-2.08"/><path d="M150.27,59.35l0,16.3a32.18,32.18,0,0,1-5.08,3.73l0-16.3a31.28,31.28,0,0,0,5.08-3.73"/><path d="M145.19,63.08l0,16.3-.71.42a44,44,0,0,1-8.74,3.91l.05-16.3a44.52,44.52,0,0,0,8.73-3.91l.71-.42"/><path d="M135.75,67.41l-.05,16.3a38.7,38.7,0,0,1-4.13,1.09c-.38.08-.75.16-1.13.22l.05-16.3,1.12-.22a40.72,40.72,0,0,0,4.14-1.09"/><path d="M130.49,68.72,130.44,85c-1.1.2-2.2.35-3.28.46l0-16.3c1.09-.11,2.18-.26,3.29-.46"/><path d="M127.2,69.18l0,16.3c-.85.09-1.7.14-2.54.17l0-16.3c.84,0,1.68-.09,2.53-.17"/><path d="M124.67,69.35l0,16.3c-.73,0-1.46,0-2.19,0l0-16.3c.72,0,1.45,0,2.19,0"/><path d="M122.48,69.36l0,16.3c-.68,0-1.36,0-2-.11l0-16.3c.67.06,1.35.09,2,.11"/><path d="M120.45,69.25l0,16.3c-.55,0-1.09-.1-1.63-.17l-.39,0,0-16.31.39.06c.54.07,1.09.13,1.64.17"/><path d="M118.42,69l0,16.31c-.72-.1-1.42-.23-2.11-.37l0-16.3q1,.21,2.1.36"/><path d="M116.32,68.66l0,16.3c-.76-.16-1.5-.34-2.23-.55l0-16.3c.73.21,1.48.39,2.24.55"/><path d="M114.08,68.11l0,16.3c-.92-.26-1.82-.56-2.69-.9l.05-16.31a26.38,26.38,0,0,0,2.68.91"/><path d="M111.4,67.2l-.05,16.31a27.62,27.62,0,0,1-3.59-1.73c-3.21-1.85-5.31-4-6.25-6.36a7.33,7.33,0,0,1-.52-2.71L101,56.4a7.38,7.38,0,0,0,.52,2.72c.94,2.37,3,4.5,6.25,6.36a26.39,26.39,0,0,0,3.59,1.72"/></g></g></g><path d="M153.07,56c-1.56,2.55-4.45,5.07-8.59,7.47a43.18,43.18,0,0,1-12.87,5,38.42,38.42,0,0,1-12.8.58,29.48,29.48,0,0,1-11-3.6c-3.21-1.86-5.31-4-6.25-6.36a8,8,0,0,1,1-7.42c1.57-2.55,4.46-5.07,8.6-7.47a42.69,42.69,0,0,1,12.86-5,38.49,38.49,0,0,1,12.81-.58,29.31,29.31,0,0,1,11,3.6c3.21,1.85,5.31,4,6.25,6.36A8,8,0,0,1,153.07,56ZM131.53,68.36a43,43,0,0,0,12.78-5c4.11-2.39,7-4.89,8.53-7.42a8,8,0,0,0,.95-7.34c-.93-2.34-3-4.45-6.19-6.29a29.21,29.21,0,0,0-10.87-3.56,38.16,38.16,0,0,0-12.67.57,42.8,42.8,0,0,0-12.78,5c-4.11,2.39-7,4.89-8.53,7.42a8,8,0,0,0-1,7.34c.93,2.34,3,4.45,6.19,6.29a29.21,29.21,0,0,0,10.87,3.56,38.16,38.16,0,0,0,12.67-.58"/></g><g class="cls-2"><polygon points="185.78 65.15 185.73 81.46 143.17 85.09 143.22 68.78 185.78 65.15"/><polygon points="194.96 70.46 194.92 86.76 185.73 81.46 185.78 65.15 194.96 70.46"/><polygon points="195.49 70.56 195.45 86.86 195.21 86.88 195.25 70.58 195.49 70.56"/><polygon points="143.22 68.78 143.17 85.09 137.29 88.5 137.34 72.2 143.22 68.78"/><polygon class="cls-6" points="194.96 70.46 194.92 86.76 155.09 90.41 155.13 74.11 194.96 70.46"/><polygon class="cls-6" points="155.13 74.11 155.09 90.41 154.85 90.43 154.89 74.13 155.13 74.11"/><polygon points="195.25 70.58 195.21 86.88 155.37 90.54 155.41 74.23 195.25 70.58"/><polygon points="172.76 76.11 172.71 92.41 165.51 96.59 165.56 80.29 172.76 76.11"/><polygon points="165.56 80.29 165.51 96.59 154.85 90.43 154.89 74.13 165.56 80.29"/><polygon points="181.05 80.89 181 97.19 172.71 92.41 172.76 76.11 181.05 80.89"/><polygon class="cls-7" points="158.2 84.25 158.16 100.55 137.29 88.5 137.34 72.2 158.2 84.25"/><polygon points="157.85 84.25 157.81 100.55 136.94 88.5 136.99 72.2 157.85 84.25"/><polygon class="cls-8" points="181.05 80.89 181 97.19 173.8 101.38 173.85 85.07 181.05 80.89"/><polygon points="181.4 80.89 181.36 97.19 174.15 101.38 174.2 85.08 181.4 80.89"/><polygon points="180.16 88.72 180.11 105.02 173.8 101.38 173.85 85.07 180.16 88.72"/><polygon points="158.2 84.25 158.16 100.55 150.08 105.25 150.13 88.94 158.2 84.25"/><polygon class="cls-7" points="173.07 92.83 173.03 109.14 166.72 105.5 166.76 89.19 173.07 92.83"/><polygon class="cls-8" points="180.16 88.72 180.11 105.02 173.03 109.14 173.07 92.83 180.16 88.72"/><polygon points="180.51 88.72 180.46 105.02 173.03 109.34 173.08 93.04 180.51 88.72"/><polygon points="173.08 93.04 173.03 109.34 166.72 105.7 166.77 89.39 173.08 93.04"/><polygon class="cls-9" points="194.96 70.46 155.13 74.11 154.89 74.13 165.56 80.29 172.76 76.11 181.05 80.89 173.85 85.07 180.16 88.72 173.07 92.83 166.76 89.19 158.69 93.88 150.13 88.94 158.2 84.25 137.34 72.2 143.22 68.78 185.78 65.15 194.96 70.46"/><polygon class="cls-8" points="166.76 89.19 166.72 105.5 158.64 110.19 158.69 93.88 166.76 89.19"/><polygon class="cls-7" points="158.69 93.88 158.64 110.19 150.08 105.25 150.13 88.94 158.69 93.88"/><polygon points="158.69 94.09 158.64 110.39 149.72 105.25 149.77 88.94 158.69 94.09"/><polygon points="166.77 89.39 166.72 105.7 158.64 110.39 158.69 94.09 166.77 89.39"/><path d="M174.2,85.08l6.31,3.64L173.08,93l-6.31-3.65-8.08,4.7-8.92-5.15,8.08-4.7L137,72.2l6.1-3.55L185.86,65l9.63,5.56-.24,0-39.84,3.65,10.14,5.86,7.21-4.19,8.64,5Zm-1.13,7.75,7.09-4.11-6.31-3.65,7.2-4.18-8.29-4.78-7.2,4.18-10.67-6.16.24,0L195,70.46l-9.18-5.31-42.56,3.64-5.88,3.41,20.86,12-8.07,4.69,8.56,4.94,8.07-4.69,6.31,3.64"/></g></g></g></svg>